<svg xmlns="http://www.w3.org/2000/svg" xmlns:xlink="http://www.w3.org/1999/xlink" width="103.874" height="93.501" viewBox="0 0 103.874 93.501">
  <defs>
    <clipPath id="clip-path">
      <rect id="Rectangle_5917" data-name="Rectangle 5917" width="103.874" height="93.501" fill="#638b5d"/>
    </clipPath>
  </defs>
  <g id="Group_91165" data-name="Group 91165" clip-path="url(#clip-path)">
    <path id="Path_125409" data-name="Path 125409" d="M17.164,57.952c-6.282-2.789-11.859,5.22-7.018,10.112l7.577,7.577a1.089,1.089,0,0,1-1.54,1.54S8.606,69.6,8.606,69.6c-6.536-6.578.989-17.4,9.45-13.633a1.087,1.087,0,0,1-.892,1.981Zm10.273,27.4a1.089,1.089,0,0,1-1.54,1.54l-4.956-4.957c-1.014-.985.557-2.552,1.54-1.54Zm42.6-41.866c-3.641,9.222-17.406,9.253-21.048,0a1.09,1.09,0,0,1,2.007-.846c3,7.453,14.073,7.488,17.034,0a1.088,1.088,0,0,1,2.006.842Zm6.952-12.846c-2.158,5.625-10.732,5.642-12.888,0A1.09,1.09,0,0,1,66.1,29.8a4.8,4.8,0,0,0,8.873,0,1.089,1.089,0,0,1,2.008.846Zm-34.949,0a1.088,1.088,0,1,1,2.007-.842,4.8,4.8,0,0,0,8.874,0,1.09,1.09,0,0,1,2.007.846C52.764,36.267,44.186,36.287,42.035,30.641Zm2.816-9.519H51.8a1.089,1.089,0,0,1,0,2.177H44.85a1.089,1.089,0,0,1,0-2.177m22.065,0h6.952a1.089,1.089,0,0,1,0,2.177H66.915a1.089,1.089,0,0,1,0-2.177M58.522,0A34.4,34.4,0,0,0,26.533,23.6c-15.047-.506-15.249,21.638-.2,21.428a34.65,34.65,0,0,0,3.332,7.331A30.234,30.234,0,0,0,26.629,55.2c-13.5-16.046-36.138,3.09-22.314,18.7L21.994,91.57a6.614,6.614,0,0,0,9.343,0l17.6-17.68a14.458,14.458,0,0,0,3.374-5.411C69.206,72.4,87.525,61.565,92.376,44.994c.278.022.548.069.833.069h0c14.909-.579,13.833-22.386-1.016-21.426A34.386,34.386,0,0,0,61.067.036Zm43.272,34.3A8.594,8.594,0,0,1,93,42.882a35.331,35.331,0,0,0-.155-17.156,8.632,8.632,0,0,1,8.948,8.576ZM25.709,26.429a35.064,35.064,0,0,0,.009,16.457c-11.3-.415-11.148-16.953.154-17.165C25.811,25.956,25.767,26.194,25.709,26.429Zm3.3,19.529c-.211-.563-.427-1.121-.607-1.7a12.008,12.008,0,0,1,14.529,5.52A15.27,15.27,0,0,0,31.4,51.109a27.644,27.644,0,0,1-2.394-5.151Zm18.4,26.4L29.8,90.034a4.431,4.431,0,0,1-6.261,0L5.861,72.354C-1.9,64.945,3.875,51.027,14.593,51.339a12.286,12.286,0,0,1,8.693,3.588L25.864,57.5a1.088,1.088,0,0,0,1.54,0l2.577-2.579C38.869,46.181,53.94,54.8,50.549,66.96v0A12.3,12.3,0,0,1,47.4,72.356ZM89.9,45.529A32.015,32.015,0,0,1,76.855,61.912c-6.085-9.043,3.181-21.255,13.537-17.828C90.242,44.572,90.074,45.051,89.9,45.529Zm1.84-8.709a32.751,32.751,0,0,1-.8,5.226C78.7,38,67.894,52.307,75.02,63a32.822,32.822,0,0,1-22.111,3.422,14.566,14.566,0,0,0-7.1-15.386h0a14.149,14.149,0,0,0-18-8.865C22.616,22.383,38.814,1.64,59.356,2.147,77.873,1.814,93.248,18.43,91.742,36.82Z" transform="translate(0)" fill="#638b5d"/>
  </g>
</svg>
