<svg xmlns="http://www.w3.org/2000/svg" xmlns:xlink="http://www.w3.org/1999/xlink" width="17.79" height="23.168" viewBox="0 0 17.79 23.168">
  <defs>
    <clipPath id="clip-path">
      <rect id="Rectangle_5902" data-name="Rectangle 5902" width="17.79" height="23.168" fill="#256693"/>
    </clipPath>
  </defs>
  <g id="Group_91080" data-name="Group 91080" clip-path="url(#clip-path)">
    <path id="Path_125402" data-name="Path 125402" d="M11.708.622A2.22,2.22,0,0,0,10.136,0H3.93A3.955,3.955,0,0,0,0,3.931V19.239a3.955,3.955,0,0,0,3.93,3.93h9.929a3.955,3.955,0,0,0,3.93-3.93V7.324a2.249,2.249,0,0,0-.7-1.655Zm4.84,18.617a2.684,2.684,0,0,1-2.689,2.689H3.93a2.684,2.684,0,0,1-2.689-2.689V3.931A2.684,2.684,0,0,1,3.93,1.242h6.247V4.966a2.3,2.3,0,0,0,2.275,2.275h4.1v12Z" transform="translate(0 -0.001)" fill="#256693"/>
    <path id="Path_125403" data-name="Path 125403" d="M69.714,107.285c-.165-.331-.579-.5-1.283-.5a7.091,7.091,0,0,0-1.489.165,14.729,14.729,0,0,1-2.275-3.392c.579-2.524.207-3.02.083-3.185a.724.724,0,0,0-.579-.29.7.7,0,0,0-.29.041,1.05,1.05,0,0,0-.579.538c-.331.7.083,1.986.538,2.937a30.562,30.562,0,0,1-1.7,4.84c-1.7.786-2.606,1.531-2.689,2.275a1.051,1.051,0,0,0,.5.993.874.874,0,0,0,.414.165c.372,0,.786-.29,1.241-.952a12.438,12.438,0,0,0,1.076-1.9,22.243,22.243,0,0,1,3.972-1.283,3.031,3.031,0,0,0,1.9,1.034,1.122,1.122,0,0,0,.993-.538c.249-.372.331-.7.166-.951Zm-9.308,3.806c-.207-.165-.207-.29-.207-.29.042-.248.414-.7,1.365-1.241-.7,1.324-1.076,1.531-1.158,1.531Zm3.558-10.136c.042-.083.083-.083.124-.124h.042c.083.083.165.5,0,1.448a2.329,2.329,0,0,1-.166-1.324Zm-.827,7.074a32.961,32.961,0,0,0,1.2-3.392,16.31,16.31,0,0,0,1.7,2.482,21.086,21.086,0,0,0-2.9.91Zm5.792-.248a.388.388,0,0,1-.372.207,1.743,1.743,0,0,1-.91-.414,5.547,5.547,0,0,1,.786-.041c.414,0,.579.041.621.083C69.011,107.657,69.011,107.7,68.928,107.782Z" transform="translate(-55.317 -93.137)" fill="#256693"/>
  </g>
</svg>
