<svg
  xmlns="http://www.w3.org/2000/svg"
  xmlns:xlink="http://www.w3.org/1999/xlink"
  width="35.147"
  height="32.148"
  viewBox="0 0 35.147 35.148"
>
  <defs>
    <clipPath id="clip-path">
      <rect
        id="Rectangle_5896"
        data-name="Rectangle 5896"
        width="14.46"
        height="12.239"
        transform="translate(0 0)"
        fill="#fff"
      />
    </clipPath>
  </defs>
  <g
    id="Group_91166"
    data-name="Group 91166"
    transform="translate(184 -1918.959)"
  >
    <path
      id="Path_125391"
      data-name="Path 125391"
      d="M17.574,0A17.574,17.574,0,1,1,0,17.574,17.574,17.574,0,0,1,17.574,0Z"
      transform="translate(-184 1918.959)"
      fill="#256693"
    />
    <g
      id="Group_91054"
      data-name="Group 91054"
      transform="translate(0 1)"
    >
      <g
        id="Group_91057"
        data-name="Group 91057"
        transform="translate(-173.656 1929.848)"
      >
        <g
          id="Group_91057-2"
          data-name="Group 91057"
          clip-path="url(#clip-path)"
        >
          <path
            id="Path_125397"
            data-name="Path 125397"
            d="M13.888,3.679l-7.11,7.84a2.2,2.2,0,0,1-1.63.72h-.08a2.244,2.244,0,0,1-1.66-.85L.468,7.619a2.2,2.2,0,1,1,3.47-2.71l1.33,1.71,5.36-5.9a2.2,2.2,0,1,1,3.26,2.96"
            fill="#fff"
          />
        </g>
      </g>
      <g
        id="Group_91054-2"
        data-name="Group 91054"
        transform="translate(-172.695 1928.443)"
        opacity="0"
      >
        <g id="Group_91056" data-name="Group 91056">
          <path
            id="Path_125396"
            data-name="Path 125396"
            d="M9.707.411h0a1.616,1.616,0,0,1,.011,2.4l-5.9,5.525,6.156,5.323a1.615,1.615,0,0,1,.148,2.3l-.053.06a1.617,1.617,0,0,1-2.277.132L.544,9.719a1.616,1.616,0,0,1-.08-2.342L7.478.482A1.617,1.617,0,0,1,9.707.411"
            fill="#fff"
          />
        </g>
      </g>
    </g>
  </g>
</svg>