<svg
    xmlns="http://www.w3.org/2000/svg"
    width="18.62"
    height="14.403"
    viewBox="0 0 18.62 21.403"
  >
    <g
      id="Group_91214"
      data-name="Group 91214"
      transform="translate(-0.97 0.49)"
    >
      <g
        id="Group_91050"
        data-name="Group 91050"
        transform="translate(0.038 0.013)"
      >
        <path
          id="Path_125392"
          data-name="Path 125392"
          d="M6.052,162.453H2.6a2.309,2.309,0,0,0-2.1,2.474v8.03a2.285,2.285,0,0,0,2.1,2.449H16.021a2.288,2.288,0,0,0,2.1-2.449v-8.03a2.309,2.309,0,0,0-2.1-2.474H12.567"
          transform="translate(0.931 -155.006)"
          fill="none"
          stroke="#fff"
          stroke-linecap="round"
          stroke-width="1"
        />
        <path
          id="Path_125393"
          data-name="Path 125393"
          d="M151.923,3.615,148.766.624a.452.452,0,0,0-.622,0l-3.157,2.991"
          transform="translate(-138.357 -0.484)"
          fill="none"
          stroke="#fff"
          stroke-linecap="round"
          stroke-width="1"
        />
        <line
          id="Line_4156"
          data-name="Line 4156"
          y1="17.35"
          x2="0.097"
          transform="translate(10.015)"
          fill="none"
          stroke="#fff"
          stroke-linecap="round"
          stroke-width="1"
        />
      </g>
    </g>
  </svg>